<?xml version="1.0" encoding="UTF-8"?>
<svg id="Layer_2" data-name="Layer 2" xmlns="http://www.w3.org/2000/svg" viewBox="0 0 3565.97 1392">
  <g id="Layer_1-2" data-name="Layer 1">
    <g>
      <path d="M3341.82,572.15c-41.31,10.43-82.66,22.27-123.04,35.96-35.46,12.03-78.75,26.8-112.93,41.07-12.38,5.17-24.15,12.45-36.2,18.29-1.56,2.53-7.96,35.43-7.89,39.58.32,18.68,12.26,53.47,15.5,74.65,8.66,56.51,10.44,108.85,38.9,161.1,6.15,11.29,17.96,21.92,23.12,32.88,2.54,5.41,9.78,28.66,10.13,34.01.52,7.95-18.35,29.78-24.11,36.93l-38.02,9.21c-2.28-.61-28.45-22.92-30.37-25.78-10.5-15.71-21.43-48.54-30.7-67.3-24.63-49.83-46.5-95.3-65.88-148.12-6.39-17.42-17.01-66.02-29.04-77.96-3.13-3.11-16.99-7.61-21.37-11.65-6.9-1.09-61.2,42.18-71.46,48.76-11.13,7.15-26.63,15.04-38.6,21.4-46.86,24.88-97.09,42.37-145.82,63.16,1.9,23.98,3.89,48.56,8.36,72.21,20.36,107.79,43.22,216.3,66.39,323.61,8.6,39.83,26.75,78.29,16.04,120l-34.02,17.84c-7.67.03-30.28-27.99-32.51-35.34-3-9.92-2.81-24.48-5.03-34.97-30.59-145-62.37-289.66-93.37-434.63-10.83-27.85-32.07-36.06-50.12-53.88-22.15-21.86-14.42-61.11-20.47-87.53-1.99-8.69-7.47-19.17-10.77-27.66-6.27-1.25-50.35,14.99-59.23,18.66-5.45,2.25-16.41,4.55-17.5,10.5s-.8,31.53.45,37.56c1.99,9.66,12.23,22.43,14.02,32.97,13.59,3.6,27.91,3.93,41.54,7.46,6.48,1.68,29.07,9.19,33.84,12.16s17.9,27.14,18.17,32.04c.38,7.13-17.23,24.48-20.63,32.2l-39.33,6.72,39.4,112.6-15.48,36.29-36.96,7.02c-3.43-.33-27.3-26.51-29.43-30.6-12.78-24.48-22.86-73.13-34.1-101.9-14.62-37.42-17.94-49.78-55.08-68.92-23.98-12.36-51.48-19.16-75.77-30.23-59.23-26.98-117.28-64.64-171.31-100.69l-33.33-25.65c5.05,18.25,7.96,38.81,14.44,56.54,12.54,34.29,44.91,110.9,67.5,136.5,20.37,23.08,51.23,41.4,70.01,63.99s48.16,72.03,48.19,101.96c0,4.43-7.95,35-9.98,37.69-9.58,2.6-33.23,10.1-41.27,5.41-2.69-1.57-25.33-24.8-27.76-28.23-6.74-9.5-12.43-24.68-18.78-35.22-48.92-81.12-66.46-131.99-159-173-24-10.63-51.71-20.65-77.34-22.66,4.95,3.88,7.82,9.49,11.94,14.06,22.63,25.15,42.12,32.66,59.1,64.9,11.27,21.41,31.74,74.62,20.68,96.77-30.39,60.88-124.93,56.84-181.81,44.36-69.92-15.34-199.85-86.92-248.94-139.06-16.48-17.51-37.18-52.5-51.59-65.4-16.77-15.02-53.13-25.05-73.16-35.86-11.33-6.11-25.82-17.43-36.85-25.15-56.98-39.85-108.07-88.5-160.43-133.57-16.59-14.28-37.09-25.9-53.97-40.04-2.74-.62-3.77.14-2.94,2.94,2.85,9.58,17.35,34.63,22.93,45.08,28.93,54.24,72.05,103.11,83.05,164.81l-19.33,30.8c-13.79.97-27.28-3.79-41.2-1.19-19.71,3.68-42.43,22.95-60.6,31.49-44.12-6.2-95.08-18.88-134.91-38.92-32.64-16.42-58.13-41.32-87.29-62.71l-33.53,19.8c-4.65,10.26-5.2,22.72-8.94,33.11-.76,2.1,1.01,3.54-2.97,2.56-30.89-16.85-60.73-35.37-82.15-63.94l-4.01-1.83c-48.48,20.98-100.38,33.31-149.59,52.43-37.89,14.72-77.98,37.44-116.4,49.6-12.61,3.99-27.27,4.62-39.02,8.98-10.53,3.9-20.66,13.79-30.7,19.3-27.27,14.96-48.44,18.15-76.41,27.59-63.43,21.4-127.18,59.69-194.17,69.83-37.72,5.71-91.4,9.49-120.87-18.66-8.06-7.7-13.71-24.7-19.52-34.45-.29-5,23.56-28.53,28.68-32.61,58.78-46.83,115.31-72.91,178.79-109.21,25.25-14.44,38.48-32.53,59.51-48.49,31.95-24.25,77.17-41.95,109.31-66.69,32.34-24.89,62.95-57.61,93.31-84.69,42.11-37.55,88.13-68.34,136.2-97.8,42.12-25.82,68.19-33.59,118.68-25.01,12.68,2.16,28.02,10.14,40.32,11.68,34.31,4.3,47.03-5.53,79.54,18.46,24.86,18.34,31.52,48.98,44.88,73.12,6.72,12.13,18.58,25.34,26.46,37.54,13.48,20.89,27.55,41.51,39.99,63.03,2.63,1.89,12.21-7.3,11.65-12.46-.74-6.86-8.91-28.78-11.98-36.24-24.16-58.94-64.89-127.58-96.06-183.94-36.32-65.68-77.37-147.86-124.63-205.37-17.29-21.04-38.72-39.11-54.99-61.01-4.49-6.05-21.69-31.47-23.24-36.93-2.35-8.29,13.88-29.7,19.18-37.05l37.17-4.82c86.86,64.79,126.04,169.51,175.81,261.88,33.91,62.94,69.85,135.89,109.43,194.57,12.59,18.67,26.49,35.94,44.63,49.37l-116.5-213.28,13.51-37.69,38.23-8.02c17.29,14.47,35.3,28.57,51.78,43.97,54.58,51,90.02,115.13,140.94,169.06,38.66,40.93,89.56,72.36,135.66,104.34,17.42,12.09,32.91,31.6,55.36,30.64-5.85-10.45-14.42-19.31-20.32-29.68-6.83-11.98-10.72-27.09-17.6-38.4-22.62-37.14-63.76-58.46-95.11-86.89-41.95-38.03-78.02-85.93-44.66-142.77,2.29-3.89,22.46-27.67,25.82-30.18,9.44-7.03,26.66-9.82,36.92-16.66l22.54,28.82c1.41,6.96-16.09,30.52-17.47,39.86-.43,2.92,1.66,35.3,2.3,37.45.55,1.84,21.19,25.64,24.56,29.44,7.77,8.73,24.03,26.84,32.33,33.67,17.61,14.48,50.05,25.82,70.16,39.84,10.39,7.25,19.13,18,28.71,25.29,36.55,27.82,140.46,80.23,185.04,84.95,17.45,1.85,41.68-2.87,59.71-3.87,48.84-2.71,101.03-6.12,149.53-12.47,27.37-3.58,50.05-13.83,73.42-27.6,2.92-4.05-16-31.76-18.83-37.87-20.83-44.87-36.38-95.77-56.68-141.32-16.62-37.29-39.06-75.62-55.81-112.19-10.6-23.16-16.24-49.65-29.11-72.89-14.81-26.75-63.7-84.68-63.28-114.25.13-8.92,4.33-21.53,5.31-30.85l31.64-24.51,38.86,11.1c20.04,21.7,20.47,47.84,28.61,73.39,7.3,22.94,18.56,48.78,26.9,73.1,26.39,76.89,63.41,141.5,91.47,214.53,10.95,28.5,13.07,59.75,26.68,87.32,5.69,11.52,18.12,22.68,22.76,33.24s4.18,23.74,10.63,33.37c10.9-50.75,1.67-103.08-1.93-154.23l21.01-34.66,41.82-10.17,30.97,25.18,32.8,71.26-24.81,32.51-2.67,41.92c10,.51,22.65,9.3,32.04,9.14,11.14-.19,29.21-6.42,41.34-8.36,13.21-2.11,28.14-2.39,40.91-5.09,12.72-2.69,26.11-10.16,39.52-11.51-2.08-27.52-12.96-50.79-20.54-76.46-9.91-33.57-16.1-63.83,14.51-88.55,2.79-2.25,7.73-6.64,11.12-6.97l36.32,10.58c4.7,10.65,15.1,21.28,19.35,31.64,5.4,13.19,5.04,33.24,7.82,48.18,4.64,24.88,12.02,46.88,23.73,69.26,1.88,1.17,39.91-1.25,44.23-2.12,2.21-.45,33.65-15.3,35.31-16.69,2.02-1.69,18.42-21.21,19.18-22.98l.63-4.31c-4.18-26.35-16.35-48.76-25.16-73.08s-21.95-54.6-29.06-78.94c-11.29-38.64-15.21-74.71-33.68-112.32-6.29-12.81-16.25-24.63-22.11-37.89-11.63-26.31-19.03-54.95-31.93-82.07-11.55-24.28-50.35-80.07-53.3-100.8-.83-5.81,2.49-35.56,5.43-39.63l35.1-19c9.86,2.58,31.3.3,38.92,5.27,1.61,1.05,22.49,27.88,23.58,30.42,8.45,19.62,12.36,49.71,20.49,71.51,25.55,68.52,47.06,129.05,68.61,199.39,27.42,89.5,57.97,177.95,86.91,267.09,4.43,13.64,10.64,26.67,14.55,40.47l68.96-37.93c5.9-.19,24.18,16.87,31.24,20.71,41.01,22.31,76.74,16.35,120.81,7.26l81.68-2.32,2.43-3.78-13.15-34.91c3.68-10.46,3.71-24.83,7.35-34.69,3.1-8.41,24.47-21.3,32.15-27.95,1.94-.4,34.42,9.52,37.95,11.19,3.97,1.88,24.13,17.07,27.54,20.46,10.91,10.88,9.47,29.83,14,44,7.38,2,16.42,9.29,22.98,11.04,18.76,4.99,64.36-11.72,85.25-14.87,12.69-1.91,28.65-.65,40.92-3.08,10.88-2.16,26.89-11.37,38.84-15.16,61.82-19.56,127.75-40.82,190.97-55.03,13.75-3.09,33.61-3.61,46.14-7.86,9.02-3.06,26.5-18.74,34.91-19.24,4.59-.27,33.62,6.21,37.78,8.42,9.37,4.96,20.14,22.4,28.31,29.8,1,2.39-3.9,32.15-5.26,36.75-3.86,13.11-48.18,54.72-61.3,58.7-11.44,3.47-28.28,1.75-40.53,5.47-6.78,2.06-34.04,18.82-37,18.57l-18.97-22.53v-35ZM2415.42,646.75c-7.67.62-18.97,2.08-26.55,3.45-2.19.4-3.74.62-4.74,2.88l10.83,36.94,80.61-32.83-4.72-9.08c-4.18-3.75-46.6-2.08-55.43-1.37ZM2311.25,680.7c-1.01-1.17-23.84-17.21-25.31-17.67-11.29-3.49-41.47,1.72-54.13,4.1-23.5,4.41-46.76,12.43-69.97,18.01,48.04,49.66,112.87,77.13,174.97,105.03,6.19,0-12.19-70.13-13.98-76.02s-8.9-30.34-11.57-33.45ZM2863.82,672.17c-26.65-6.16-53.78-6.61-81.08-6.11-34.61.64-107,4.8-138.96,15.04-10.99,3.52-24.18,16.91-35.54,21.44-2.1,3.6,2.88,33.82,4.49,39.69,1.24,4.53,13.04,31.65,15.25,34.75,3.73,5.21,16.14,3.46,22.32,2.65,54.65-7.14,98.04-25.98,144.86-53.14,25.28-14.67,53.33-28.32,68.65-54.32ZM805.81,758.12c.82-3.03-.79-3.31-1.97-5-5.82-8.4-18.91-17.38-25.98-26.02-7.87-9.59-15.76-27.62-25.34-34.66-2.32-1.71-32.09-15.5-33.95-15.7-6.02-.63-35.62,4.47-42.7,6.46-26.37,7.39-47.83,25.37-71.3,36.7-24.44,11.81-53.84,18.86-78.13,31.87-46.76,25.06-95.19,61.01-140.85,85.15-33.6,17.76-70.71,31.85-102.44,53.56-11.33,7.75-22.51,23.45-34.33,31.67-9.44,6.55-22.31,11.46-32.86,16.16,1.84,12.18,5.63,18.62,18.81,17.83,38.78-2.32,81.67-21.86,118.56-29.48,20.38-4.21,44.22-2.73,65.08-4.92l22.84-23.16c11.49-2.75,28.49-.88,39.03-4.97,8.97-3.48,21.22-18.12,32.18-23.82,33.68-17.52,73.96-24.01,109.32-36.68,13.13-4.71,26.56-13.55,39.52-18.48,23.82-9.06,52.73-15.45,75.11-24.89,11.57-4.89,23.25-16.04,34.94-21.06,5.02-2.16,33.41-9.09,34.47-10.55ZM1953.76,1010.07c-1.46-29.09-10.6-47.01-27.15-69.71-22.93-31.43-46.49-49.95-78.15-71.85-35.89-24.83-121.99-77.69-163.74-78.43-12.38-.22-29.76,6.2-41.68,5.86-26.97-.76-54.29-13.66-70.08-35.92-7.29-10.28-9.74-24.51-17.04-34.96l-22.07-8.91c4.8,27.28,17.02,49.88,30.47,73.5l37.48,15.53,19.03,29.1c2.67,7.8-12.89,26.73-6.76,38.58,1.49,2.87,20.19,23.04,23.74,26.31,50.38,46.54,186.01,113.93,253.53,122.47,24.72,3.13,39.61-5.85,62.42-11.56ZM1819.81,776.13c26.26,7.1,54.93,10.59,80.89,18.14,26.55,7.72,52.74,16.78,79.56,24.44,19.21,5.49,40.48,22.28,57.37,4.13-7.14-40.01-31.51-73.22-53.17-106.44l-159.26,32.13-5.39,27.6Z"/>
      <path d="M81.33,662.59c13.46-1.91,28.79,10.48,40.43,16.62,2.65,3.22,8.25,30.88,8.13,35.85-.39,15.78-18.26,58.86-26.31,73.84-3.13,5.83-19.82,33.17-24.7,33.22l-41.54-10.49c-22.74-19.8-32.97-44.97-37.34-74.58.11-1.98,16.47-31.41,18.94-34.78,16.87-23.03,33.38-35.57,62.39-39.68Z"/>
      <path d="M3511.34,700.5l6.44.62c6.63,8.48,20.45,15.44,26.9,23.17,18.16,21.75,21.8,57.68,21.24,84.95-.21,10.07-3.4,20.91-2.48,31.52l-36.61,21.22c-11.1.1-15.8-28.42-22.14-37.71-6.52-9.56-23.54-20.16-28.61-29.39-1.94-3.53-10.27-30.13-10.38-33.81-.18-6.16,14.17-34.12,18.4-39.64,1.85-2.41,25.06-20.39,27.24-20.93Z"/>
    </g>
  </g>
</svg>